<svg id="Layer_1" data-name="Layer 1" xmlns="http://www.w3.org/2000/svg" viewBox="0 0 141.73 141.73"><defs><style>.cls-1{fill:#0dbbec;}.cls-2{fill:#243e90;}</style></defs><title>iconwebsite</title><path class="cls-1" d="M78.21,99.93a55.61,55.61,0,0,0,6.52,4.64,52.73,52.73,0,0,0,14.57,6.28c.41.11.45.32.4.65s-.39.11-.59.06c-2.05-.51-4.11-1-6.13-1.62-1-.31-2.09-.46-3.14-.71a55.54,55.54,0,0,1-9.91-3.35,64.79,64.79,0,0,1-12.74-7.57q-3-2.3-5.85-4.9A86,86,0,0,1,46.42,75.05c-1.25-2-2.42-4.12-3.48-6.25a77.92,77.92,0,0,1-6-16,58.74,58.74,0,0,1-1.49-8.46,56.42,56.42,0,0,1-.27-6.47c0-.22,0-.46.21-.6L41.24,39c2.74.8,5.47,1.63,8.22,2.41a.7.7,0,0,1,.61.89,36.43,36.43,0,0,0,.12,6.24,58.14,58.14,0,0,0,1.48,9,80.55,80.55,0,0,0,17,33.14,37.24,37.24,0,0,0,2.58,2.84.55.55,0,0,1,.46.22c1.26,1.37,2.65,2.62,4,3.91.64.48,1.2,1.05,1.83,1.54C77.77,99.44,78.19,99.51,78.21,99.93Z"/><path class="cls-1" d="M75.65,97.74a51.21,51.21,0,0,1-4.36-4.23c1.7-1.83,3.38-3.68,4.92-5.65A84.87,84.87,0,0,0,84,76a81.65,81.65,0,0,0,6-13.9A68.71,68.71,0,0,0,92.07,54c.31-1.62.56-3.25.72-4.89.11-1.17.21-2.35.29-3.52.08-.32,0-.66.06-1v-2c-.09-.32,0-.66-.06-1,0-.72,0-.73.62-.92l10.7-3.17,3.27-.95a.41.41,0,0,1,.19.37,23.55,23.55,0,0,1,0,3.84c-.09,1-.12,1.95-.22,2.92a59.57,59.57,0,0,1-1.85,9.81,77.88,77.88,0,0,1-4.3,11.77A87,87,0,0,1,95.9,75.71a90.73,90.73,0,0,1-6.29,8.73,87.19,87.19,0,0,1-7.72,8.24,64.87,64.87,0,0,1-5.74,4.82C76,97.61,75.86,97.75,75.65,97.74Z"/><path class="cls-2" d="M35.36,37.25a52.61,52.61,0,0,0,.19,6.58,59.26,59.26,0,0,0,1.36,8.13,76.83,76.83,0,0,0,5.63,15.59A88.34,88.34,0,0,0,52.73,83.79a80.77,80.77,0,0,0,8.27,9,69,69,0,0,0,18.13,12.47,57.86,57.86,0,0,0,13,4.23c2,.39,3.85,1.07,5.79,1.54l1.77.43c.16.29,0,.6,0,.89s-.27.18-.42.16c-1.54-.19-3.08-.34-4.61-.59a68.78,68.78,0,0,1-10.08-2.42,77.5,77.5,0,0,1-10.11-4.09,3.15,3.15,0,0,0-.67-.24c-1-.54-1.95-1-2.92-1.5a33,33,0,0,1-3.61-2.14c-1.41-.83-2.74-1.79-4.06-2.74S60.81,97,59.62,96c-1.63-1.31-3.16-2.75-4.72-4.13a3.59,3.59,0,0,1-.4-.41c-1.93-1.83-3.75-3.77-5.49-5.78a29.51,29.51,0,0,1-2-2.42q-1.73-2.11-3.28-4.36A76.09,76.09,0,0,1,39.24,72,67.69,67.69,0,0,1,36,65.63a65.73,65.73,0,0,1-2.89-7.23c-.59-1.75-1.14-3.51-1.57-5.31s-.79-3.48-1-5.25a3.88,3.88,0,0,1,0-.43,8.84,8.84,0,0,1-.27-1.84A23.59,23.59,0,0,1,30,42.2,45.45,45.45,0,0,1,30,37.08a.69.69,0,0,1,.21-.51l.14-1.1L34.71,37A1.77,1.77,0,0,1,35.36,37.25Z"/><path class="cls-2" d="M75.65,97.74a9.9,9.9,0,0,1,1.61-1.35c1.35-1.1,2.68-2.22,4-3.39S84,90.3,85.37,88.92a74.33,74.33,0,0,0,5.44-6.32c1.46-1.88,2.86-3.82,4.16-5.81,1.58-2.43,3-4.93,4.39-7.49a81.52,81.52,0,0,0,5.18-12.13,63.24,63.24,0,0,0,2.64-10.85c.26-1.77.41-3.55.53-5.33.1-1.46,0-2.91,0-4.36l5.1-1.68a.66.66,0,0,1,.28.63,3.14,3.14,0,0,0,.11.94,41.63,41.63,0,0,1,.09,4.36,31.75,31.75,0,0,1-.23,4.21,9.33,9.33,0,0,1-.24,1.85,44.58,44.58,0,0,1-1,5.45,10.75,10.75,0,0,1-.48,1.8A50.68,50.68,0,0,1,109,61.28c-.38,1.16-.89,2.26-1.39,3.37-.58,1.31-1.2,2.61-1.89,3.88q-1.64,3.19-3.58,6.19c-.82,1.28-1.66,2.55-2.57,3.77Q98,80.71,96.21,82.81a49.24,49.24,0,0,1-3.53,4,72.11,72.11,0,0,1-6.74,6.47,80.47,80.47,0,0,1-7.71,5.83c-.22.15-.43.35-.74.26A19.67,19.67,0,0,1,75.65,97.74Z"/><path class="cls-1" d="M43.42,110.82c-.15-.51.24-.58.57-.66a47.78,47.78,0,0,0,7.37-2.55,58.59,58.59,0,0,0,12.13-7.18l.43-.3c.24-.14.43,0,.62.13l2.5,1.41a8.8,8.8,0,0,1,.83.45c.13.11.29.2.32.39s-.24.36-.44.47a54.88,54.88,0,0,1-15.07,5.74c-2.71.58-5.34,1.47-8,2.07-.23.05-.46.12-.7.16S43.56,111,43.42,110.82Z"/><path class="cls-2" d="M43.42,110.82a27.94,27.94,0,0,0,3.68-.88c2.62-.79,5.3-1.31,7.94-2a53,53,0,0,0,8.56-3.1q2.12-1,4.16-2.09a1,1,0,0,0,.39-.27.31.31,0,0,1,.36,0,9,9,0,0,1,1.6.86c.28.18.21.4,0,.58a5,5,0,0,1-.85.45,77.73,77.73,0,0,1-7.95,3.31l-.32.1a96.45,96.45,0,0,1-11.21,3.13c-1.92.4-3.86.71-5.8,1-.41.06-.68,0-.61-.5C43.37,111.2,43.3,111,43.42,110.82Z"/><path class="cls-1" d="M127.31,29.29l-.36.14-9,3.47-5.18,2,.19,1.55h0l.12,4.4h0c-.07,2-.24,4-.48,6.06h0c-.36,2.43-.87,4.83-1.45,7.22s-1.45,4.78-2.35,7.11h0l-1.09,2.59c-.66,1.57-1.45,3.09-2.18,4.63h0a91.76,91.76,0,0,1-6.13,9.91l-1.1,1.45c-1.79,2.38-3.72,4.63-5.74,6.82l-.67.68c-1.92,2-4,3.9-6.07,5.75l-.53.41a76.34,76.34,0,0,1-7.83,5.8l.73.6c1.5-.92,3-1.82,4.49-2.76,1.86-1.19,3.7-2.4,5.44-3.76h0c1.49-1,2.9-2.15,4.31-3.28s2.6-2.07,3.79-3.23h0c.1-.08.21-.14.31-.23,2.2-2,4.33-4,6.38-6.09.56-.59,1.1-1.19,1.65-1.79h0c1.72-1.79,3.32-3.68,4.87-5.62,1.16-1.44,2.31-2.89,3.34-4.44a3.13,3.13,0,0,0,.22-.25,82,82,0,0,0,4.49-7h0a61.7,61.7,0,0,0,3.75-7.13h0a55,55,0,0,0,2.88-7.13A44.55,44.55,0,0,0,125.95,41a36.81,36.81,0,0,0,1-5s0,0,0,0a50.64,50.64,0,0,0,.61-6.48C127.57,29.28,127.47,29.24,127.31,29.29Z"/><path class="cls-1" d="M73.64,105c-2.14-1.1-4.22-2.32-6.27-3.58h0c-1.47-1-2.94-1.94-4.34-3-1.11-.83-2.21-1.69-3.32-2.53h0c-.38-.33-.77-.65-1.15-1l-4-3.55h0l-.88-.88c-1.6-1.56-3.09-3.23-4.6-4.88l-1.28-1.54c-1.41-1.68-2.7-3.44-4-5.2h0c-1.25-1.85-2.49-3.71-3.64-5.63-1.48-2.48-2.8-5-4.06-7.65-1-2.38-2-4.77-2.87-7.22h0L31.7,53.11h0a1.55,1.55,0,0,0,0-.28c-.45-1.78-.76-3.58-1.06-5.39s-.4-3.46-.48-5.19h0q-.07-2.79.1-5.58l0,0a.89.89,0,0,0,.12-1.17L30,35.29,16.39,30a15.74,15.74,0,0,1-2.12-.87c-.2.24,0,.52-.1.77a1,1,0,0,1,.08.27,35.57,35.57,0,0,0,.31,4,13.86,13.86,0,0,0,.37,2.35h0a12,12,0,0,0,.3,1.84,33.3,33.3,0,0,0,.94,3.94h0a21.72,21.72,0,0,0,.83,3,16.6,16.6,0,0,0,.82,2.33h0c.06.2.11.4.18.59a50,50,0,0,0,2.12,5.09,44.64,44.64,0,0,0,2.59,5.21h0a28.87,28.87,0,0,0,1.5,2.72,54.18,54.18,0,0,0,2.92,4.6h0a.38.38,0,0,0,0,.14c1.89,2.7,3.81,5.37,5.92,7.9,1.43,1.72,2.87,3.43,4.44,5,.34.38.67.77,1,1.13,1.87,1.93,3.76,3.84,5.79,5.61a85.91,85.91,0,0,0,6.94,5.86c2,1.62,4.1,3.13,6.25,4.55.78.59,1.6,1.11,2.43,1.63,1.31.83,2.63,1.64,3.94,2.46,1,.53,2,1.19,3.06,1.67l1.17.69,2.15,1.09c-1.63.87-3.21,1.64-4.83,2.34s-3,1.23-4.5,1.84a1.58,1.58,0,0,0,.69-.16A88.06,88.06,0,0,0,70.42,104a.82.82,0,0,1,.8,0c.86.42,1.74.8,2.6,1.2C73.83,105.07,73.72,105,73.64,105Z"/><path class="cls-1" d="M93.08,41.67a2.13,2.13,0,0,1,.06,1A3.81,3.81,0,0,1,93.08,41.67Z"/><path class="cls-1" d="M93.14,44.61a2.15,2.15,0,0,1-.06,1A3.33,3.33,0,0,1,93.14,44.61Z"/></svg>