<svg id="Layer_1" data-name="Layer 1" xmlns="http://www.w3.org/2000/svg" viewBox="0 0 200 200"><defs><style>.cls-1{fill:#16ade4;}.cls-2{fill:#fff;}</style></defs><title>pendingsentfailed</title><circle class="cls-1" cx="100" cy="100" r="100"/><path class="cls-2" d="M97.05,10.47l-10,7.4,9.93,13.48A70.21,70.21,0,0,0,49.08,148.88l-1-8.37,8-2.6A57.75,57.75,0,0,1,97.56,43.8l-14,15.4,9.22,8.39L118.4,39.43Z"/><path class="cls-2" d="M102.95,189.53l10-7.4-9.93-13.48A70.21,70.21,0,0,0,150.92,51.12l1,8.37-8,2.6a57.75,57.75,0,0,1-41.49,94.11l14-15.4-9.22-8.39L81.6,160.57Z"/></svg>