<svg height="512pt" viewBox="0 -7 512 512" width="512pt" xmlns="http://www.w3.org/2000/svg"><path d="m471.847656 251.335938h-62.910156v-154.480469c0-3.976563-1.582031-7.792969-4.394531-10.605469l-81.855469-81.855469c-2.8125-2.8125-6.628906-4.394531-10.605469-4.394531h-194.019531c-8.285156 0-15 6.714844-15 15v236.335938h-62.910156c-22.140625 0-40.152344 18.011718-40.152344 40.152343v165.90625c0 22.140625 18.011719 40.152344 40.152344 40.152344h431.695312c22.140625 0 40.152344-18.011719 40.152344-40.152344v-165.90625c0-22.140625-18.011719-40.152343-40.152344-40.152343zm-144.765625-200.121094 30.644531 30.640625h-30.644531zm-194.019531-21.214844h164.019531v66.855469c0 8.285156 6.714844 15 15 15h66.855469v139.480469h-245.875zm-2.324219 437.546875v-55.050781c0-2.082032 1.695313-3.777344 3.78125-3.777344h242.960938c2.085937 0 3.78125 1.695312 3.78125 3.777344v55.050781zm351.261719-10.152344c0 5.597657-4.554688 10.15625-10.152344 10.15625h-60.585937v-55.050781c0-18.625-15.15625-33.777344-33.78125-33.777344h-242.960938c-18.625 0-33.78125 15.152344-33.78125 33.777344v55.050781h-60.585937c-5.597656 0-10.152344-4.558593-10.152344-10.15625v-165.90625c0-5.597656 4.554688-10.152343 10.152344-10.152343h431.695312c5.597656 0 10.152344 4.554687 10.152344 10.152343zm0 0"/><path d="m377.316406 322.925781c-9.371094 0-16.996094 7.621094-16.996094 16.992188 0 9.371093 7.625 16.992187 16.996094 16.992187 9.367188 0 16.992188-7.621094 16.992188-16.992187 0-9.371094-7.625-16.992188-16.992188-16.992188zm0 0"/><path d="m322.589844 322.925781c-9.371094 0-16.992188 7.621094-16.992188 16.992188 0 9.371093 7.621094 16.992187 16.992188 16.992187s16.996094-7.621094 16.996094-16.992187c0-9.371094-7.625-16.992188-16.996094-16.992188zm0 0"/><path d="m331.175781 195.191406h-155.847656c-8.28125 0-15 6.714844-15 15s6.71875 15 15 15h155.847656c8.285157 0 15-6.714844 15-15s-6.714843-15-15-15zm0 0"/><path d="m331.175781 132.070312h-155.847656c-8.28125 0-15 6.71875-15 15 0 8.285157 6.71875 15 15 15h155.847656c8.285157 0 15-6.714843 15-15 0-8.28125-6.714843-15-15-15zm0 0"/><path d="m175.328125 98.953125h77.695313c8.285156 0 15-6.714844 15-15 0-8.28125-6.714844-15-15-15h-77.695313c-8.28125 0-15 6.71875-15 15 0 8.285156 6.714844 15 15 15zm0 0"/></svg>