<svg id="Layer_1" data-name="Layer 1" xmlns="http://www.w3.org/2000/svg" viewBox="0 0 452.67 131.35"><defs><style>.cls-1{font-size:24.44px;font-family:FuturaBT-Medium, Futura Md BT;}.cls-1,.cls-3{fill:#979797;}.cls-2{letter-spacing:-0.1em;}.cls-4{fill:#0dbaeb;}.cls-5{fill:#243e8f;}</style></defs><title>LogoST24</title><text class="cls-1" transform="translate(192.03 106.25)">System<tspan class="cls-2" x="77.71" y="0">T</tspan><tspan x="87.69" y="0">opup24jam</tspan></text><path class="cls-3" d="M244.54,279.8h-28.3c-13.71,0-19.73-8.88-21-13.57l-.12-1v-5.77h7.29v5.2c.64,1.71,3.63,7.81,13.83,7.81h28.3c10.18,0,13.22-6.23,13.83-7.81v-5.34c-.64-1.71-3.63-7.81-13.83-7.81l-28.29.06c-13.72,0-19.73-8.88-21-13.57l-.12-1,.12-7.81c1.27-4.69,7.28-13.57,21-13.57h25.52c13.71,0,19.73,8.88,21,13.57l.12,1V236h-7.29v-5.2C255,229.1,252,223,241.76,223H216.24c-10.18,0-13.22,6.23-13.83,7.81v5.7c.64,1.71,3.63,7.81,13.83,7.81l28.29-.06c13.71,0,19.73,8.88,21,13.57l.12,1-.12,7.45C264.26,270.93,258.25,279.8,244.54,279.8Z" transform="translate(-47.33 -195.33)"/><rect class="cls-3" x="220.44" y="19.79" width="65.14" height="6.98"/><rect class="cls-3" x="248.99" y="35.89" width="7.14" height="45.55"/><rect class="cls-3" x="266.15" y="53.8" width="33.1" height="6.83"/><path class="cls-3" d="M388.88,276.69h-25c-4.18,0-6.58-1.62-7.86-3a9.09,9.09,0,0,1-2.37-5.53h0v-.47c0-.12,0-.22,0-.3v-6.33c0-13.08,16.78-16.64,17.49-16.78l.73-.07H410c4,0,6.12-3.25,6.83-4.58V229.54c0-4.76-8.77-6.9-11.51-7.29H371.85c-6.38,0-9.48,6.36-10.13,7.91v9.63h-7.29V229.54c0-2,5.24-14.58,17.42-14.58L406,215c6.73.82,18.12,4.81,18.12,14.55v11.63l-.26.65c-.16.4-4,9.69-13.86,9.69H372.26c-1.86.46-11.34,3.1-11.34,9.57v6.76c.06.67.5,1.56,3,1.56h25Z" transform="translate(-47.33 -195.33)"/><polygon class="cls-3" points="424.05 80.91 416.76 80.91 416.76 73.09 380.1 73.09 380.1 53.95 426.56 19.34 443.94 19.34 443.94 48.49 452.67 48.49 452.67 55.78 436.65 55.78 436.65 26.63 428.98 26.63 387.38 57.61 387.38 65.8 424.05 65.8 424.05 80.91"/><path class="cls-4" d="M113.78,195.33a66,66,0,0,0-42.22,15.21L99.5,238.47a38.8,38.8,0,0,1,54.15,54.15l11.14,11.14a66.22,66.22,0,0,0-51-108.44Z" transform="translate(-47.33 -195.33)"/><path class="cls-5" d="M113.55,326.67a66,66,0,0,0,42.22-15.21l-27.94-27.94a38.8,38.8,0,0,1-54.15-54.15L62.53,218.23a66.22,66.22,0,0,0,51,108.44Z" transform="translate(-47.33 -195.33)"/></svg>