<svg id="Layer_1" data-name="Layer 1" xmlns="http://www.w3.org/2000/svg" viewBox="0 0 472 143.47"><defs><style>.cls-1{font-size:37.83px;font-family:FuturaBT-Medium, Futura Md BT;}.cls-1,.cls-3{fill:#979797;}.cls-2{letter-spacing:-0.1em;}</style></defs><title>logost24type</title><text class="cls-1" transform="translate(68.49 134.55)">System<tspan class="cls-2" x="120.31" y="0">T</tspan><tspan x="135.76" y="0">opup24jam</tspan></text><path class="cls-3" d="M101.5,290.11H57.69c-21.23,0-30.54-13.74-32.5-21L25,267.63v-8.94H36.28v8c1,2.64,5.63,12.09,21.41,12.09H101.5c15.76,0,20.46-9.64,21.4-12.1v-8.26c-1-2.64-5.63-12.09-21.4-12.09l-43.8.09c-21.24,0-30.55-13.75-32.51-21L25,224l.19-12.1c2-7.27,11.27-21,32.5-21H97.21c21.23,0,30.54,13.74,32.5,21l.19,1.47v8.94H118.61v-8c-1-2.64-5.63-12.09-21.41-12.09H57.69c-15.77,0-20.47,9.64-21.41,12.1v8.83c1,2.65,5.63,12.09,21.41,12.09l43.8-.09c21.23,0,30.54,13.74,32.5,21l.19,1.47L134,269.1C132,276.37,122.72,290.11,101.5,290.11Z" transform="translate(-25 -189.26)"/><rect class="cls-3" x="112.47" y="0.7" width="100.84" height="10.81"/><rect class="cls-3" x="156.66" y="25.62" width="11.05" height="70.52"/><rect class="cls-3" x="183.22" y="53.36" width="51.24" height="10.58"/><path class="cls-3" d="M325,285.29h-38.7c-6.47,0-10.19-2.51-12.16-4.61a14.07,14.07,0,0,1-3.67-8.56h0v-.73c0-.19,0-.34,0-.46v-9.8c0-20.25,26-25.76,27.08-26l1.12-.11h59.06c6.15,0,9.47-5,10.58-7.09V212.3c0-7.37-13.58-10.68-17.82-11.28H298.6c-9.88,0-14.68,9.85-15.69,12.25v14.9H271.63V212.3c0-3.09,8.12-22.57,27-22.57l52.87,0c10.42,1.27,28.05,7.45,28.05,22.52v18l-.4,1c-.25.62-6.18,15-21.46,15H299.24c-2.88.71-17.56,4.8-17.56,14.81V271.6c.09,1,.78,2.41,4.58,2.41H325Z" transform="translate(-25 -189.26)"/><polygon class="cls-3" points="427.69 95.32 416.4 95.32 416.4 83.21 359.64 83.21 359.64 53.58 431.58 0 458.48 0 458.48 45.13 472 45.13 472 56.41 447.2 56.41 447.2 11.28 435.31 11.28 370.92 59.25 370.92 71.93 427.69 71.93 427.69 95.32"/></svg>