<svg id="Layer_1" data-name="Layer 1" xmlns="http://www.w3.org/2000/svg" viewBox="0 0 438 368.56"><defs><style>.cls-1{font-size:35.1px;font-family:FuturaBT-Medium, Futura Md BT;}.cls-1,.cls-3{fill:#979797;}.cls-2{letter-spacing:-0.1em;}.cls-4{fill:#0dbaeb;}.cls-5{fill:#243e8f;}</style></defs><title>logost24btm</title><text class="cls-1" transform="translate(63.56 369.38) rotate(0.06)">System<tspan class="cls-2" x="111.64" y="0">T</tspan><tspan x="125.97" y="0">opup24jam</tspan></text><path class="cls-3" d="M113,410.1l-40.65,0c-19.7,0-28.32-12.78-30.13-19.53L42,389.17v-8.29H52.48v7.46c.91,2.45,5.21,11.22,19.85,11.24l40.65,0c14.63,0,19-8.92,19.87-11.2v-7.67c-.91-2.45-5.21-11.22-19.85-11.24l-40.64,0C52.66,369.54,44,356.78,42.22,350L42,348.67l.19-11.23C44.07,330.7,52.72,318,72.42,318l36.66,0c19.7,0,28.32,12.78,30.13,19.53l.18,1.37v8.29H128.91v-7.46c-.91-2.45-5.21-11.22-19.85-11.24l-36.66,0c-14.63,0-19,8.92-19.88,11.2v8.19c.91,2.46,5.21,11.23,19.85,11.24l40.64,0c19.7,0,28.33,12.78,30.14,19.53l.18,1.37-.19,10.7C141.31,397.39,132.65,410.13,113,410.1Z" transform="translate(-42 -72)"/><rect class="cls-3" x="146.43" y="317.28" width="93.57" height="10.03" transform="translate(-41.64 -72.22) rotate(0.06)"/><rect class="cls-3" x="187.38" y="340.4" width="10.25" height="65.43" transform="translate(-41.58 -72.22) rotate(0.06)"/><rect class="cls-3" x="212.03" y="366.18" width="47.55" height="9.82" transform="translate(-41.58 -72.27) rotate(0.06)"/><path class="cls-3" d="M320.31,405.87l-35.91,0c-6,0-9.45-2.34-11.28-4.29a13.05,13.05,0,0,1-3.4-7.94h0v-.67c0-.17,0-.32,0-.43V383.4c0-18.79,24.13-23.87,25.16-24.08l1-.1,54.8.06c5.71,0,8.79-4.65,9.82-6.57l0-14.52c0-6.84-12.59-9.93-16.53-10.49l-48.08-.05c-9.17,0-13.63,9.12-14.57,11.35l0,13.83H270.89l0-14.72c0-2.87,7.55-20.93,25.05-20.91l49.06.1c9.67,1.19,26,6.94,26,20.93l0,16.71-.37.94c-.23.57-5.75,13.92-19.93,13.9l-54.21-.06c-2.67.65-16.3,4.44-16.31,13.72v9.71c.08,1,.72,2.23,4.25,2.24l35.91,0Z" transform="translate(-42 -72)"/><polygon class="cls-3" points="396.83 333.35 386.36 333.33 386.37 322.1 333.7 322.04 333.73 294.55 400.54 244.91 425.5 244.93 425.45 286.81 438 286.83 437.99 297.3 414.97 297.27 415.02 255.39 403.99 255.38 344.19 299.82 344.18 311.58 396.86 311.64 396.83 333.35"/><path class="cls-4" d="M261.27,72A94.74,94.74,0,0,0,200.6,93.78L240.69,134a55.74,55.74,0,0,1,77.7,77.88l16,16A95.13,95.13,0,0,0,261.27,72Z" transform="translate(-42 -72)"/><path class="cls-5" d="M260.73,260.69a94.74,94.74,0,0,0,60.67-21.78l-40.09-40.19a55.74,55.74,0,0,1-77.7-77.88l-16-16a95.13,95.13,0,0,0,73.11,155.86Z" transform="translate(-42 -72)"/></svg>