<svg id="Layer_1" data-name="Layer 1" xmlns="http://www.w3.org/2000/svg" viewBox="0 0 345.08 104.89"><defs><style>.cls-1{font-size:27.66px;font-family:FuturaBT-Medium, Futura Md BT;}.cls-1,.cls-3{fill:#fff;}.cls-2{letter-spacing:-0.1em;}</style></defs><title>whitest24</title><text class="cls-1" transform="translate(50.07 98.37)">System<tspan class="cls-2" x="87.96" y="0">T</tspan><tspan x="99.25" y="0">opup24jam</tspan></text><path class="cls-3" d="M166.86,304.88h-32c-15.52,0-22.33-10-23.76-15.36l-.14-1.08v-6.53h8.25v5.88c.72,1.93,4.11,8.84,15.65,8.84h32c11.52,0,15-7,15.65-8.85v-6c-.72-1.93-4.11-8.84-15.65-8.84l-32,.07c-15.53,0-22.33-10-23.77-15.36l-.14-1.08.14-8.85c1.43-5.31,8.24-15.36,23.76-15.36h28.89c15.52,0,22.33,10,23.76,15.36l.14,1.08v6.53h-8.25v-5.88c-.72-1.93-4.11-8.84-15.65-8.84H134.83c-11.53,0-15,7-15.65,8.85v6.46c.72,1.94,4.11,8.84,15.65,8.84l32-.07c15.52,0,22.33,10,23.76,15.36l.14,1.08-.14,8.43C189.18,294.84,182.37,304.88,166.86,304.88Z" transform="translate(-110.93 -231.16)"/><rect class="cls-3" x="82.22" y="0.51" width="73.73" height="7.91"/><rect class="cls-3" x="114.53" y="18.73" width="8.08" height="51.56"/><rect class="cls-3" x="133.95" y="39.01" width="37.46" height="7.73"/><path class="cls-3" d="M330.23,301.36H301.93c-4.73,0-7.45-1.83-8.89-3.37a10.28,10.28,0,0,1-2.68-6.26h0v-.53c0-.14,0-.25,0-.34V283.7c0-14.8,19-18.83,19.8-19l.82-.08h43.18c4.5,0,6.92-3.67,7.73-5.18V248c0-5.39-9.93-7.81-13-8.25H311c-7.23,0-10.73,7.2-11.47,9v10.9h-8.25V248c0-2.26,5.93-16.5,19.72-16.5l38.65,0c7.62.93,20.51,5.45,20.51,16.47v13.17l-.29.74c-.18.45-4.52,11-15.69,11H311.42c-2.1.52-12.84,3.51-12.84,10.83v7.65c.06.76.57,1.76,3.35,1.76h28.29Z" transform="translate(-110.93 -231.16)"/><polygon class="cls-3" points="312.68 69.69 304.43 69.69 304.43 60.84 262.93 60.84 262.93 39.17 315.53 0 335.19 0 335.19 33 345.08 33 345.08 41.24 326.94 41.24 326.94 8.25 318.26 8.25 271.18 43.32 271.18 52.59 312.68 52.59 312.68 69.69"/></svg>