<svg id="Layer_1" data-name="Layer 1" xmlns="http://www.w3.org/2000/svg" viewBox="0 0 448.47 444"><defs><style>.cls-1{fill:#0dbaeb;}.cls-2{fill:#243e8f;}</style></defs><title>logoSt24symbl</title><path class="cls-1" d="M261.64,39A222.92,222.92,0,0,0,118.87,90.24l94.35,94.56A131.16,131.16,0,0,1,396.06,368.06l37.61,37.7A222.92,222.92,0,0,0,485.23,263.1C485.37,139.47,385.27,39.14,261.64,39Z" transform="translate(-36.76 -39)"/><path class="cls-2" d="M260.36,483a222.92,222.92,0,0,0,142.77-51.24L308.79,337.2A131.16,131.16,0,0,1,125.94,153.94l-37.61-37.7A222.92,222.92,0,0,0,36.77,258.9C36.63,382.53,136.73,482.86,260.36,483Z" transform="translate(-36.76 -39)"/></svg>