<?xml version="1.0" standalone="no"?>
<!DOCTYPE svg PUBLIC "-//W3C//DTD SVG 20010904//EN"
 "http://www.w3.org/TR/2001/REC-SVG-20010904/DTD/svg10.dtd">
<svg version="1.0" xmlns="http://www.w3.org/2000/svg"
 width="453.000000pt" height="132.000000pt" viewBox="0 0 453.000000 132.000000"
 preserveAspectRatio="xMidYMid meet">

<g transform="translate(0.000000,132.000000) scale(0.100000,-0.100000)"
fill="#000000" stroke="none">
<path d="M2398 1195 c-237 -33 -425 -87 -578 -166 -95 -48 -210 -130 -210
-149 0 -24 54 -8 95 28 277 242 938 345 1490 232 229 -47 422 -130 549 -237
26 -21 50 -33 70 -33 l30 0 -35 36 c-111 116 -384 226 -689 280 -131 23 -586
29 -722 9z"/>
<path d="M2425 1094 c-116 -20 -218 -45 -230 -56 -6 -6 5 -22 33 -44 23 -20
42 -40 42 -45 0 -5 -23 -20 -50 -34 -44 -23 -49 -28 -40 -45 15 -28 49 -34
144 -26 275 22 586 96 586 139 0 32 -30 40 -139 40 l-108 -1 -21 44 -22 44
-57 -1 c-32 0 -94 -7 -138 -15z"/>
<path d="M2915 738 c167 -159 276 -310 315 -434 17 -56 17 -56 28 -27 25 63
32 113 31 218 -2 177 6 165 -134 202 -66 17 -122 32 -125 33 -3 0 18 11 47 23
29 13 54 25 57 28 6 6 -266 59 -302 59 -19 0 -4 -19 83 -102z"/>
<path d="M1520 812 c-48 -24 -73 -72 -73 -141 0 -100 48 -155 136 -155 73 0
101 26 105 98 l3 56 -56 0 c-42 0 -55 -3 -55 -15 0 -11 11 -15 40 -15 38 0 40
-2 40 -30 0 -50 -71 -75 -129 -45 -65 33 -66 180 -3 214 46 25 109 4 124 -40
2 -7 11 -10 21 -6 16 6 17 9 2 38 -16 30 -66 59 -102 59 -10 0 -34 -8 -53 -18z"/>
<path d="M570 697 c0 -127 -6 -147 -43 -147 -11 0 -22 11 -28 30 -11 30 -39
42 -39 16 0 -54 46 -92 96 -80 42 11 54 50 54 184 0 113 -1 120 -20 120 -19 0
-20 -7 -20 -123z"/>
<path d="M670 706 c0 -137 8 -162 56 -182 48 -20 100 -8 128 29 18 24 22 46
25 148 3 115 2 119 -18 119 -20 0 -21 -5 -21 -115 0 -102 -2 -117 -20 -135
-20 -20 -65 -26 -86 -12 -26 17 -34 56 -34 156 0 88 -3 106 -15 106 -12 0 -15
-19 -15 -114z"/>
<path d="M940 670 c0 -127 2 -150 15 -150 12 0 15 14 15 65 l0 65 40 0 c38 0
41 -2 77 -65 29 -49 43 -65 61 -65 l23 0 -27 48 c-15 26 -36 57 -47 70 -12 13
-16 22 -8 22 24 0 61 48 61 80 0 19 -9 40 -25 55 -22 22 -32 25 -105 25 l-80
0 0 -150z m151 110 c22 -12 26 -59 7 -78 -7 -7 -38 -12 -70 -12 l-58 0 0 50 0
50 51 0 c28 0 59 -5 70 -10z"/>
<path d="M1226 674 c-26 -80 -45 -148 -42 -151 13 -13 33 8 45 46 l12 41 58 0
58 0 13 -45 c9 -33 18 -45 31 -45 11 0 19 3 19 6 0 3 -23 70 -52 150 -44 124
-54 144 -72 144 -19 0 -28 -19 -70 -146z m93 44 c12 -34 21 -66 21 -70 0 -4
-20 -8 -44 -8 l-44 0 22 70 c11 38 22 70 23 70 0 0 11 -28 22 -62z"/>
<path d="M1766 674 c-26 -80 -45 -148 -42 -151 13 -13 33 8 45 46 l12 42 56
-3 56 -3 15 -42 c10 -32 19 -43 34 -43 12 0 18 5 16 13 -125 356 -122 353
-192 141z m108 -11 c7 -22 5 -23 -39 -23 -34 0 -46 4 -42 13 2 6 13 38 23 70
l18 59 17 -49 c9 -26 19 -58 23 -70z"/>
<path d="M1990 670 c0 -145 1 -150 21 -150 19 0 20 5 17 115 -3 132 -8 133 79
-17 39 -67 63 -98 75 -98 17 0 18 12 18 150 0 125 -2 150 -15 150 -12 0 -15
-22 -17 -116 l-3 -116 -68 116 c-50 85 -73 116 -88 116 -18 0 -19 -8 -19 -150z"/>
<path d="M3420 670 c0 -127 2 -150 15 -150 12 0 15 13 15 60 l0 60 44 0 c85 0
126 31 126 96 0 59 -41 84 -141 84 l-59 0 0 -150z m148 98 c7 -7 12 -24 12
-38 0 -38 -18 -50 -77 -50 l-53 0 0 50 0 50 53 0 c29 0 58 -5 65 -12z"/>
<path d="M3705 803 c-23 -57 -94 -277 -90 -281 12 -12 35 11 46 47 l12 41 57
0 57 0 12 -41 c11 -37 34 -59 48 -46 3 4 -19 72 -48 152 -40 108 -58 145 -70
145 -9 0 -20 -8 -24 -17z m44 -85 c12 -34 21 -66 21 -70 0 -4 -18 -8 -40 -8
-22 0 -40 5 -40 10 0 11 34 130 37 130 0 0 11 -28 22 -62z"/>
<path d="M3830 816 c0 -3 22 -42 50 -88 46 -76 50 -88 50 -145 0 -49 3 -63 15
-63 12 0 15 13 15 61 0 64 3 70 98 217 13 20 13 22 -6 22 -15 0 -33 -19 -63
-70 -40 -67 -42 -70 -53 -48 -42 81 -70 118 -87 118 -10 0 -19 -2 -19 -4z"/>
<path d="M2435 776 c-28 -19 -70 -53 -95 -75 l-45 -40 98 -1 c53 0 97 -2 97
-4 0 -2 -16 -30 -35 -62 -19 -32 -35 -61 -35 -64 0 -23 703 -280 766 -280 4 0
-31 20 -80 45 -111 57 -212 126 -323 219 -89 73 -220 205 -263 264 -13 18 -26
32 -30 32 -3 0 -28 -15 -55 -34z"/>
<path d="M1648 411 c362 -328 1363 -395 1938 -131 89 41 185 103 223 144 l24
26 -29 0 c-19 -1 -51 -18 -94 -50 -154 -118 -398 -202 -700 -241 -124 -16
-459 -16 -580 0 -301 40 -566 133 -707 248 -39 32 -61 43 -85 43 l-33 -1 43
-38z"/>
</g>
</svg>
