<svg id="Layer_1" data-name="Layer 1" xmlns="http://www.w3.org/2000/svg" viewBox="0 0 141.73 141.73"><defs><style>.cls-1{fill:#0dbbec;}.cls-2{fill:#243e90;}</style></defs><title>iconwebsite</title><path class="cls-1" d="M70.78,14.19a56.68,56.68,0,1,1-.09,113.36c-31.42-.19-56.54-25.11-56.52-57.25C14.19,39.5,39.72,14.19,70.78,14.19Z"/><path class="cls-2" d="M42.89,67.91c-.8-3.4-.2-4.67,3-5.81q20.73-7.3,41.49-14.53a21.11,21.11,0,0,1,2.91-.86c3.45-.67,5.56,1.73,4.43,5.1Q87,74.91,78.48,97.73c-1.49,2.93-3.83,3.36-5.88.91-2.67-3.18-4.17-7.09-6.07-10.72-5.12-9.79-3.13-7.42-12.4-12.24-3.05-1.59-6.28-2.86-9.14-4.82C43.95,70.13,42.94,69.36,42.89,67.91Z"/></svg>