<svg id="Layer_1" data-name="Layer 1" xmlns="http://www.w3.org/2000/svg" viewBox="0 0 141.73 141.73"><defs><style>.cls-1{fill:#0698d5;}.cls-2{fill:#243e90;}</style></defs><title>iconwebsite</title><path class="cls-1" d="M75.8,25.11a6.42,6.42,0,0,0-6.47-6.45H43.51q-13.08,0-26.16,0a6.4,6.4,0,0,0-6.27,6.23q0,14.23,0,28.45a6.25,6.25,0,0,0,5.14,6.14,31.62,31.62,0,0,0,4.84.16H39.14c0,1.91,0,3.84,0,5.81-1.86,0-3.64,0-5.41,0a2.15,2.15,0,0,0,0,4.3H53.14a2.15,2.15,0,0,0,0-4.3H48.37c-.19,0-.39,0-.62,0v-.78q0-2.49,0-5H69.46a6.4,6.4,0,0,0,6.34-6.3Q75.82,39.24,75.8,25.11ZM69.32,48.67a7.2,7.2,0,0,1-1.14,3.75,1.54,1.54,0,0,1-1.45.78H29.84c-3.24,0-6.47,0-9.71,0a1.53,1.53,0,0,1-1.45-.79,7.1,7.1,0,0,1-1.13-3.69q0-10.59,0-21.17A2.19,2.19,0,0,1,20,25.14H66.7c1.82,0,2.63.81,2.63,2.63Q69.33,38.22,69.32,48.67Z"/><path class="cls-1" d="M130.66,78.39a6.42,6.42,0,0,0-6.47-6.45H98.36q-13.08,0-26.16,0a6.4,6.4,0,0,0-6.27,6.23q0,14.23,0,28.45a6.25,6.25,0,0,0,5.14,6.14,31.62,31.62,0,0,0,4.84.16H94c0,1.91,0,3.84,0,5.81-1.86,0-3.64,0-5.41,0a2.15,2.15,0,0,0,0,4.3H108a2.15,2.15,0,0,0,0-4.3h-4.79c-.19,0-.39,0-.62,0v-.78q0-2.49,0-5h21.71a6.4,6.4,0,0,0,6.34-6.3Q130.68,92.52,130.66,78.39ZM124.18,102a7.2,7.2,0,0,1-1.14,3.75,1.54,1.54,0,0,1-1.45.78H84.7c-3.24,0-6.47,0-9.71,0a1.53,1.53,0,0,1-1.45-.79A7.1,7.1,0,0,1,72.41,102q0-10.59,0-21.17a2.19,2.19,0,0,1,2.43-2.42h46.73c1.82,0,2.63.81,2.63,2.63Q124.19,91.5,124.18,102Z"/><path class="cls-2" d="M64,91.33l-4.23-6.26a3.19,3.19,0,1,0-5.28,3.57l.86,1.27-12.19,0V81.31A3.19,3.19,0,0,0,40,78.12h0a3.19,3.19,0,0,0-3.19,3.19V93s0,0,0,.06,0,0,0,.07A3.19,3.19,0,0,0,40,96.3l15.4,0-1,1.43a3.19,3.19,0,0,0,.86,4.43h0a3.19,3.19,0,0,0,4.43-.86L64,95a3.29,3.29,0,0,0,0-3.63Z"/><path class="cls-2" d="M81.3,43.3l4.23,6.26A3.19,3.19,0,1,0,90.81,46L90,44.72l12.19,0v8.62a3.19,3.19,0,0,0,3.19,3.19h0a3.19,3.19,0,0,0,3.19-3.19V41.59s0,0,0-.06,0,0,0-.07a3.19,3.19,0,0,0-3.24-3.14l-15.4,0,1-1.43A3.19,3.19,0,0,0,90,32.49h0a3.19,3.19,0,0,0-4.43.86L81.3,39.67a3.29,3.29,0,0,0,0,3.63Z"/></svg>