<?xml version="1.0"?><svg width="640" height="480" xmlns="http://www.w3.org/2000/svg">
 <title>shopping cart</title>
 <metadata id="metadata7">image/svg+xmlshopping cartcartsupermarketshoppingshopping cartSergio Luiz Araujo Silva</metadata>
 <g>
  <title>Layer 1</title>
  <g id="layer1">
   <path d="m501.315826,86.82795c-0.513855,0.007324 -1.041534,0.052711 -1.546814,0.143135c-0.009155,0.001831 -0.018829,-0.001831 -0.027985,0l-50.973053,8.705467c-3.242279,0.556252 -5.95993,2.779282 -7.159729,5.84182a2.317527,2.317527 0 0 00,0.028595l-23.652954,60.651917l-230.838165,5.756393c-2.654724,0.066147 -5.147217,1.264435 -6.872757,3.264145c-1.72641,1.999695 -2.556671,4.657822 -2.234116,7.302216l12.743027,105.410736c0.525986,4.422211 4.17952,7.929077 8.620239,8.275574l164.573013,13.087646l32.617035,25.658234a2.317527,2.317527 0 0 00.114471,0.084991c0.034607,0.024933 0.078857,0.034088 0.114502,0.058014c0.040192,0.026459 0.07428,0.059479 0.114471,0.084991c5.95282,4.443573 7.428406,10.497131 6.586823,13.859955c-0.479309,1.917297 -1.211517,3.325714 -2.949707,4.410553c-1.738159,1.085327 -4.741272,1.870483 -9.879456,1.575348a2.317527,2.317527 0 0 0-0.057465,0c-0.164886,-0.005585 -0.351105,-0.003571 -0.515961,0c-0.027496,0 -0.058533,-0.001007 -0.085999,0l-196.273788,0.572937l-0.028397,0c-5.158249,-0.033081 -9.499084,4.292999 -9.478882,9.449463c0.020142,5.157013 4.378372,9.466827 9.535675,9.392487c0.010071,0 0.019226,0 0.028381,0l14.34758,-0.028473c-5.331406,3.39798 -8.906143,9.342621 -8.906143,16.094269c0,10.499725 8.600082,19.099976 19.100464,19.099976c10.500198,0 19.099945,-8.60025 19.099945,-19.099976c0,-6.7883 -3.583694,-12.791443 -8.963043,-16.180267l161.624207,-0.457916c-5.822571,3.282959 -9.793457,9.515625 -9.793457,16.638184c0,10.499725 8.60025,19.099976 19.099945,19.099976c10.500732,0 19.100983,-8.60025 19.100983,-19.099976c0,-9.11972 -6.477905,-16.807159 -15.062408,-18.670959c8.116364,-2.871857 14.351044,-8.792603 18.212585,-17.840607a2.317527,2.317527 0 0 00.142975,-0.343475c2.959839,-11.836884 -2.289734,-24.704193 -13.115601,-33.075439a2.317527,2.317527 0 0 0-0.086517,-0.085999c-0.026459,-0.020355 -0.031036,-0.065155 -0.056488,-0.08551a2.317527,2.317527 0 0 0-0.314453,-0.314972l-23.110046,-18.126526l72.077789,-184.619766l45.732117,-7.789169c0.009155,-0.001518 0.020325,0.002037 0.028503,0c4.804352,-0.7724 8.317841,-5.249802 7.903656,-10.108459c-0.414185,-4.867928 -4.656311,-8.685883 -9.53598,-8.61953l0.000977,0l0,0zm-90.319824,89.91787l-13.287079,34.07785l-17.324615,0l0,-33.304428l30.611694,-0.773422zm-37.22699,0.945923l0,33.131927l-31.986603,0l0,-32.330017l31.986603,-0.80191zm-38.601898,0.944885l0,32.187042l-31.986572,0l0,-31.385635l31.986572,-0.801407zm-38.601868,0.972885l0,31.214157l-31.987061,0l0,-30.412231l31.987061,-0.801926zm-38.601837,0.974411l0,30.239746l-31.987091,0l0,-29.438339l31.987091,-0.801407zm-38.601883,0.944382l0,29.295364l-23.453705,0l-3.464767,-28.607925l26.918472,-0.687439zm-22.651886,35.881165l22.651886,0l0,29.925797l-19.043213,0l-3.608673,-29.925797zm29.266678,0l31.987091,0l0,29.925797l-31.987091,0l0,-29.925797zm38.601868,0l31.987061,0l0,29.925797l-31.987061,0l0,-29.925797zm38.602356,0l31.986572,0l0,29.925797l-31.986572,0l0,-29.925797zm38.601868,0l31.986603,0l0,29.925797l-31.986603,0l0,-29.925797zm38.601898,0l14.776398,0l-11.683716,29.925797l-3.092682,0l0,-29.925797zm-179.264175,36.5121l18.241394,0l0,21.477722l-15.807556,-1.260406l-2.433838,-20.217316zm24.856186,0l31.987091,0l0,24.540863l-31.987091,-2.548218l0,-21.992645zm38.601868,0l31.987061,0l0,27.60553l-31.987061,-2.520233l0,-25.085297zm38.602356,0l31.986572,0l0,30.698212l-31.986572,-2.548737l0,-28.149475zm38.601868,0l31.986603,0l0,18.212524l-6.070831,15.549866c-0.788208,-0.382141 -1.647614,-0.616699 -2.520233,-0.687439l-23.395538,-1.860779l0,-31.214172zm38.601898,0l0.48645,0l-0.48645,1.345856l0,-1.345856zm-162.054169,121.361511c6.241806,0 11.2258,4.984009 11.2258,11.225281c0,6.241302 -4.983994,11.19632 -11.2258,11.19632c-6.241165,0 -11.22525,-4.955017 -11.22525,-11.19632c0,-6.241272 4.984085,-11.225281 11.22525,-11.225281zm181.068634,0c6.241302,0 11.225281,4.984009 11.225281,11.225281c0,6.241302 -4.983978,11.19632 -11.225281,11.19632c-6.241333,0 -11.225311,-4.955017 -11.225311,-11.19632c0,-6.241272 4.983978,-11.225281 11.225311,-11.225281zm-181.068634,5.325928c-3.390335,0 -6.099106,2.708496 -6.099106,6.099335c0,3.391357 2.708771,6.070862 6.099106,6.070862c3.390823,0 6.099335,-2.679504 6.099335,-6.070862c0,-3.390839 -2.708511,-6.099335 -6.099335,-6.099335zm181.068634,0c-3.390839,0 -6.099335,2.708496 -6.099335,6.099335c0,3.391357 2.708496,6.070862 6.099335,6.070862c3.39032,0 6.099335,-2.679504 6.099335,-6.070862c0,-3.390839 -2.709015,-6.099335 -6.099335,-6.099335z" id="path3847" stroke-width="15.5" fill="#27870f"/>
  </g>
 </g>
</svg>