<?xml version="1.0" encoding="UTF-8"?>
<svg width="90px" height="64px" viewBox="0 0 90 64" version="1.1" xmlns="http://www.w3.org/2000/svg" xmlns:xlink="http://www.w3.org/1999/xlink">
    <!-- Generator: Sketch 52.6 (67491) - http://www.bohemiancoding.com/sketch -->
    <title>map2</title>
    <desc>Created with Sketch.</desc>
    <g id="FINAL" stroke="none" stroke-width="1" fill="none" fill-rule="evenodd">
        <g id="empty-state-(active)" transform="translate(-114.000000, -128.000000)">
            <g id="Group-2" transform="translate(16.000000, 107.000000)">
                <g id="map2" transform="translate(94.000000, 0.000000)">
                    <g id="Group-6">
                        <rect id="Rectangle-3" x="0" y="0" width="100" height="100"></rect>
                        <g id="island" transform="translate(53.689922, 51.000000)" fill-rule="nonzero">
                            <path d="M13.1408231,12.2105263 L12.0930233,12.592106 C12.1977797,12.5992034 14.8742941,20.7688244 15.0251811,25.4385965 L17.1317829,25.1708039 C17.1317044,25.1708039 15.773486,16.3443316 13.1408231,12.2105263 Z" id="Shape" fill="#AA8778"></path>
                            <path d="M12.8063186,12.5921038 L13.0490251,12.480149 C13.0062894,12.3892572 12.9636778,12.2973734 12.9200117,12.2105263 L12.0930233,12.5921038 C12.1757035,12.5992011 14.2881742,20.7688513 14.4072635,25.4385965 L15.1162791,25.3243522 C14.9669212,20.6372071 12.8883786,12.5991248 12.8063186,12.5921038 Z" id="Shape" fill="#9B7369"></path>
                            <path d="M27.2593465,2.20342488 C27.1627015,2.06556985 26.9760011,2.00284217 26.8047758,2.05134671 C25.2237127,2.4995579 23.9525523,3.51405054 23.4147152,4.94894631 C23.2872198,5.28902518 23.2140372,5.63667148 23.1782946,5.98614127 L27.6678909,7.12280702 C27.7762171,6.93188875 27.8733613,6.73367656 27.9518353,6.52443232 C28.4906708,5.08680134 28.1830643,3.52161798 27.2593465,2.20342488 Z" id="Shape" fill="#BEE86E"></path>
                            <g id="Group" transform="translate(12.093023, 0.000000)" fill="#AFD755">
                                <path d="M16.6767069,3.93751818 C15.875509,4.21321901 15.1539247,4.59777528 14.5207726,5.04976558 C14.2666625,4.35322334 13.9119536,3.65717815 13.4338642,2.99501567 C12.3567544,1.50301688 10.9277937,0.4790799 9.51410237,0.0480488227 C9.30833202,-0.0146631752 9.09929547,0.136690616 9.09186488,0.354567175 C9.04238201,1.80564162 9.55403161,3.46440296 10.6282018,4.95225961 C10.9046037,5.33507618 11.2057469,5.68417573 11.5222413,6.00328618 L16.3928745,7.57000918 C16.8159285,7.49453939 17.2442901,7.38850061 17.6738766,7.24062621 C19.4001428,6.64647767 20.7920322,5.57134384 21.6219726,4.33276117 C21.7427402,4.15249524 21.66329,3.90479527 21.4607042,3.83214214 C20.1112753,3.34817452 18.3981555,3.34502649 16.6767069,3.93751818 Z" id="Shape"></path>
                                <path d="M0.615677949,9.44482453 C0.214915698,10.102762 0.011431686,10.9713688 0.0534839597,11.9100605 L1.54793195,12.0856872 L2.6736264,11.018672 C2.21047981,10.2428492 1.59120904,9.65897316 0.923108648,9.34980384 C0.812302949,9.29860699 0.679777045,9.33969702 0.615677949,9.44482453 Z" id="Shape"></path>
                            </g>
                            <g id="Group" transform="translate(7.054264, 8.140351)" fill="#BEE86E">
                                <path d="M4.04947992,2.78483735 C2.65461937,2.40926033 1.29897404,2.39869403 0.223924646,2.73018412 C0.0673884902,2.77842471 0.00422192951,2.94712103 0.102462981,3.06677517 C0.576455759,3.64413194 1.63502339,4.63080501 2.40877316,4.92542238 L5.51757472,3.41670162 C5.51749353,3.41677449 4.86138944,3.00345029 4.04947992,2.78483735 Z" id="Shape"></path>
                                <path d="M6.37357093,2.09562363 C7.36889081,0.978948739 8.65414358,0.237413651 9.84448412,0.0144284539 C9.90156136,0.578158352 9.67097906,2.26774488 9.15898892,3.00738533 L5.51757469,3.41677449 C5.51749353,3.41677449 5.88642521,2.64215598 6.37357093,2.09562363 Z" id="Shape"></path>
                            </g>
                            <path d="M23.9706963,5.0877193 C19.2456191,12.9037602 18.1395349,25.4385965 18.1395349,25.4385965 L21.4048646,25.4159925 C21.4541181,17.8390262 25.030218,5.26599406 25.1937984,5.25279464 L23.9706963,5.0877193 Z" id="Shape" fill="#AA8778"></path>
                            <path d="M24.9940956,5.2466899 L25.1842577,5.26690153 C25.1871118,5.26327168 25.1918414,5.25287713 25.1937984,5.25271214 L23.9706289,5.0877193 C19.2456064,12.9037602 18.1395349,25.4385965 18.1395349,25.4385965 L19.749226,25.4274595 C19.9043239,23.4076996 20.9144989,12.4379854 24.9940956,5.2466899 Z" id="Shape" fill="#9B7369"></path>
                            <g id="Group" transform="translate(2.015504, 2.035088)" fill="#DCF5FF">
                                <path d="M10.4110763,4.02927015 C10.0725657,4.02927015 9.79866459,3.7325747 9.79866459,3.36589296 C9.79866459,2.26850123 8.97451148,1.37576138 7.96142933,1.37576138 C7.20249807,1.37576138 6.5320603,1.86939693 6.25280054,2.63319285 C6.13858575,2.94605811 5.88795624,3.16961623 5.58297519,3.22981771 C5.27255898,3.29134594 4.95502349,3.17542078 4.73914835,2.91885965 C4.62370873,2.78154057 4.45866376,2.70251576 4.28703537,2.70251576 C3.94913719,2.70251576 3.67462362,2.99987459 3.67462362,3.36589296 C3.67462362,3.7325747 3.40072246,4.02927015 3.06221187,4.02927015 L0.612488304,4.02927015 C0.273977708,4.02927015 7.65514691e-05,3.7325747 7.65514691e-05,3.36589296 C7.65514691e-05,2.99921121 0.273977708,2.70251576 0.612488304,2.70251576 L2.55436942,2.70251576 C2.80737202,1.93026179 3.488527,1.37576138 4.28695882,1.37576138 C4.65233898,1.37576138 5.00700194,1.49500343 5.30662439,1.71068394 C5.846695,0.687756305 6.8472227,0.0490069901 7.96142933,0.0490069901 C9.64977198,0.0490069901 11.0234881,1.53704496 11.0234881,3.36589296 C11.0234881,3.7325747 10.7495869,4.02927015 10.4110763,4.02927015 Z" id="Shape"></path>
                                <path d="M32.4578994,15.9700596 L26.9461937,15.9700596 C26.6076831,15.9700596 26.3337819,15.6733642 26.3337819,15.3066824 C26.3337819,14.9400007 26.6076831,14.6433052 26.9461937,14.6433052 L32.4578994,14.6433052 C32.79641,14.6433052 33.0703112,14.9400007 33.0703112,15.3066824 C33.0703112,15.6733642 32.79641,15.9700596 32.4578994,15.9700596 Z" id="Shape"></path>
                                <path d="M24.4965467,15.9700596 L23.2717231,15.9700596 C22.9332125,15.9700596 22.6593114,15.6733642 22.6593114,15.3066824 C22.6593114,14.9400007 22.9332125,14.6433052 23.2717231,14.6433052 L24.4965467,14.6433052 C24.8350572,14.6433052 25.1089584,14.9400007 25.1089584,15.3066824 C25.1089584,15.6733642 24.8350572,15.9700596 24.4965467,15.9700596 Z" id="Shape"></path>
                                <path d="M29.3958407,18.6235684 L25.7213702,18.6235684 C25.3828596,18.6235684 25.1089584,18.3268729 25.1089584,17.9601912 C25.1089584,17.5935095 25.3828596,17.296814 25.7213702,17.296814 L29.3958407,17.296814 C29.7343513,17.296814 30.0082524,17.5935095 30.0082524,17.9601912 C30.0082524,18.3268729 29.7343513,18.6235684 29.3958407,18.6235684 Z" id="Shape"></path>
                            </g>
                            <g id="Group" transform="translate(7.054264, 10.175439)" fill="#AFD755">
                                <path d="M3.55699396,4.96715625 C2.57589097,6.14809539 1.39272276,6.85993092 0.297958086,7.04106168 C0.154706182,7.06476727 0.027974872,6.93021299 0.0446423155,6.76677796 C0.177981863,5.45971505 0.761856357,4.03729605 1.74795224,2.85034704 C2.81231902,1.56924342 4.11436208,0.840212993 5.28350615,0.741801398 C5.21713007,2.13058183 4.62128732,3.68596916 3.55699396,4.96715625 Z" id="Shape"></path>
                                <path d="M8.73043624,3.15451316 C10.1128061,3.50917887 11.4401073,3.34090255 12.4393462,2.78574095 C12.5695285,2.71337212 12.6050662,2.52356044 12.5124774,2.39685238 C11.7796239,1.39378865 10.6169412,0.584042352 9.2311938,0.22845847 C7.73486855,-0.155505345 6.30301034,0.073370477 5.28196422,0.742385691 C5.99778319,1.85704934 7.234111,2.77054934 8.73043624,3.15451316 Z" id="Shape"></path>
                            </g>
                            <g id="Group" transform="translate(15.116279, 3.052632)" fill="#BEE86E">
                                <path d="M4.30700139,3.77052834 C2.55364218,3.47138512 1.0741563,2.61084388 0.129264115,1.47860374 C-0.00109607785,1.32241321 0.0364628566,1.07412272 0.205331918,0.972497976 C1.46779439,0.212451417 3.14961625,-0.111956731 4.9075059,0.187912955 C6.81438908,0.513209008 8.39734472,1.50265789 9.32104606,2.78333957 C8.03125471,3.68658097 6.21395763,4.09590511 4.30700139,3.77052834 Z" id="Shape"></path>
                                <path d="M13.0685362,6.71853391 C11.3155424,5.8278039 10.0391232,4.3966627 9.46887042,2.88512576 C10.9333766,2.40751366 12.7826791,2.56467282 14.535673,3.45540283 C16.147492,4.27437399 17.3564659,5.55029327 17.9839339,6.92549646 C18.070451,7.11518522 17.9727539,7.34256959 17.7851054,7.38914423 C16.3823449,7.73736437 14.6845203,7.53960374 13.0685362,6.71853391 Z" id="Shape"></path>
                            </g>
                            <path d="M19.1212642,25.4385965 C12.0853573,25.4385965 5.99116006,27.486859 3.02325581,30.4736167 L35.2713178,30.5263158 C32.3229112,27.5110253 26.1984966,25.4385965 19.1212642,25.4385965 Z" id="Shape" fill="#F5DCB4"></path>
                            <path d="M20.1550388,25.4606649 C19.7624782,25.4473177 19.3675324,25.4385965 18.9685087,25.4385965 C11.9993661,25.4385965 5.96299735,27.5018802 3.02325581,30.5105418 L12.5364247,30.5263158 C14.3765812,28.3278914 17.0177859,26.5571849 20.1550388,25.4606649 Z" id="Shape" fill="#EBC9A0"></path>
                            <path d="M38.3900394,28.9433261 C37.740859,29.2081364 37.0050642,29.5087507 35.602533,29.5087507 C34.2000018,29.5087507 33.4648284,29.2081364 32.815648,28.9433261 C32.2210773,28.7008377 31.7075279,28.4912281 30.6176629,28.4912281 C29.5284194,28.4912281 29.0154915,28.7009013 28.4216199,28.9433261 C27.7724395,29.2081364 27.0372661,29.5087507 25.6354341,29.5087507 C24.233602,29.5087507 23.4977295,29.2081364 22.8485491,28.9433261 C22.2546775,28.7008377 21.7417496,28.4912281 20.652506,28.4912281 C19.5632625,28.4912281 19.0503346,28.7009013 18.456463,28.9433261 C17.8072826,29.2081364 17.0721092,29.5087507 15.6708986,29.5087507 C14.269688,29.5087507 13.5338155,29.2081364 12.8853342,28.9433261 C12.2920841,28.7008377 11.7791562,28.4912281 10.6905341,28.4912281 C9.60129051,28.4912281 9.0883626,28.7009013 8.4951125,28.9433261 C7.84655349,29.2081364 7.11138013,29.5087507 5.71016952,29.5087507 C4.30895891,29.5087507 3.57308642,29.2081364 2.92460509,28.9433261 C2.62871801,28.8224317 2.35279495,28.7097411 2.01550388,28.6270673 C2.01550388,28.6270673 2.01806735,28.991722 2.02171836,29.4228337 C2.02971951,30.368303 2.82765915,31.1914788 3.95535482,31.3954285 C4.44901783,31.4847161 5.02712013,31.5437961 5.71016952,31.5437961 C7.57870926,31.5437961 8.66158297,31.1016189 9.37811288,30.8090175 C9.88218516,30.6030328 10.0700179,30.5262734 10.6906117,30.5262734 C11.3105064,30.5262734 11.4983392,30.6030328 12.0003141,30.8081908 C12.7184753,31.1014281 13.8018928,31.5437961 15.671054,31.5437961 C17.5385062,31.5437961 18.6213799,31.102064 19.3379875,30.809717 C19.8443125,30.6030328 20.0323006,30.5262734 20.6527391,30.5262734 C21.2731776,30.5262734 21.4611657,30.6030328 21.963529,30.8081272 C22.6835545,31.1018732 23.766972,31.5437961 25.6356671,31.5437961 C27.5037408,31.5437961 28.5866145,31.102064 29.3032221,30.809717 C29.8095471,30.6030328 29.9975352,30.5262734 30.617896,30.5262734 C31.2394997,30.5262734 31.4279539,30.6030964 31.9314824,30.8085087 C32.6511195,31.102064 33.7340709,31.5438596 35.6026884,31.5438596 C36.2870583,31.5438596 36.8660928,31.484589 37.3603773,31.3951742 C38.4866747,31.1913516 39.2846143,30.3702744 39.2945575,29.4259498 C39.2991407,28.9932483 39.3023256,28.6266858 39.3023256,28.6266858 C38.9637916,28.7092959 38.6870141,28.8221773 38.3900394,28.9433261 Z" id="Shape" fill="#C1E9FF"></path>
                            <path d="M34.7959423,31.5438596 C33.4218568,31.5438596 32.7015504,31.0929287 32.0655644,30.695705 C31.4831153,30.3319649 30.9799479,30.0175439 29.9121245,30.0175439 C28.844931,30.0175439 28.3423934,30.3320603 27.7605741,30.695705 C27.1245882,31.0929287 26.4042817,31.5438596 25.0308261,31.5438596 C23.6573704,31.5438596 22.9364341,31.0929287 22.3004482,30.695705 C21.7185501,30.3319649 21.2160913,30.0175439 20.1488978,30.0175439 C19.0817042,30.0175439 18.5791667,30.3320603 17.9973474,30.695705 C17.3613614,31.0929287 16.641055,31.5438596 15.2682292,31.5438596 C13.8954033,31.5438596 13.1744671,31.0929287 12.5391109,30.695705 C11.9578428,30.3319649 11.4553052,30.0175439 10.3887415,30.0175439 C9.32154797,30.0175439 8.81901042,30.3320603 8.23782098,30.695705 C7.60246487,31.0929287 6.88215843,31.5438596 5.50933261,31.5438596 C4.13650678,31.5438596 3.41557049,31.0929287 2.78021439,30.695705 C2.19894622,30.3319649 1.69640867,30.0175439 0.629844961,30.0175439 C0.281698159,30.0175439 0,29.6762215 0,29.254386 C0,28.8325504 0.281698159,28.4912281 0.629844961,28.4912281 C2.00274952,28.4912281 2.72297723,28.942159 3.35833333,29.3393827 C3.9396015,29.7031228 4.44213905,30.0175439 5.50925388,30.0175439 C6.57581759,30.0175439 7.07835514,29.7030274 7.6596233,29.3393827 C8.29497941,28.942159 9.0159157,28.4912281 10.3887415,28.4912281 C11.7615673,28.4912281 12.4818738,28.942159 13.1172299,29.3393827 C13.6984981,29.7031228 14.2010356,30.0175439 15.2681504,30.0175439 C16.3352653,30.0175439 16.8372517,29.7030274 17.419071,29.3393827 C18.0550569,28.942159 18.7753634,28.4912281 20.148819,28.4912281 C21.5222747,28.4912281 22.2425812,28.942159 22.8785671,29.3393827 C23.4604651,29.7031228 23.9629239,30.0175439 25.0307473,30.0175439 C26.0979409,30.0175439 26.6004784,29.7030274 27.1822977,29.3393827 C27.8182837,28.942159 28.5385901,28.4912281 29.9120458,28.4912281 C31.2861313,28.4912281 32.0064377,28.942159 32.6424237,29.3393827 C33.2248728,29.7031228 33.7280402,30.0175439 34.7958636,30.0175439 C35.8642381,30.0175439 36.3674055,29.7030274 36.9498547,29.3393827 C37.5858406,28.9413958 38.3066982,28.4912281 39.6802326,28.4912281 C40.0283794,28.4912281 40.3100775,28.8325504 40.3100775,29.254386 C40.3100775,29.6762215 40.0283794,30.0175439 39.6802326,30.0175439 C38.6124092,30.0175439 38.1093205,30.3320603 37.5267926,30.695705 C36.8908854,31.0930241 36.1700279,31.5438596 34.7959423,31.5438596 Z" id="Shape" fill="#A5DCFF"></path>
                            <path d="M35.2999486,33.5787566 C33.3168908,33.5787566 32.1267254,32.835727 31.4157124,32.3915691 C30.9544318,32.1038586 30.8720012,32.0524408 30.4162317,32.0524408 C29.9604622,32.0524408 29.8774018,32.1046217 29.4173021,32.3923322 C28.706919,32.835727 27.5185644,33.578852 25.5348767,33.578852 C23.5524487,33.578852 22.3616535,32.8358224 21.6506405,32.3916645 C21.1911707,32.1039539 21.1087401,32.0525362 20.6529706,32.0525362 C20.1972011,32.0525362 20.1141407,32.1047171 19.654041,32.3924276 C18.9436579,32.8358224 17.7553033,33.5789474 15.7722454,33.5789474 C13.7861171,33.5789474 12.5972114,32.8343914 11.8867495,32.3902336 C11.4303502,32.1040493 11.3479196,32.0526316 10.8927799,32.0526316 C10.4370105,32.0526316 10.3545799,32.1040493 9.89573991,32.3917599 C9.18535675,32.8359178 7.99763201,33.5789474 6.01331447,33.5789474 C5.08516341,33.5789474 4.24676484,33.4202105 3.45088062,33.0930066 C3.12178812,32.9573553 2.94527487,32.5243586 3.05659946,32.1249408 C3.16855389,31.7261908 3.52591056,31.5107895 3.85555417,31.6472039 C4.51925028,31.9199375 5.22475216,32.0526316 6.01323574,32.0526316 C7.69121382,32.0526316 8.63101697,31.4646184 9.31746613,31.0353421 C9.88148973,30.6820954 10.1613758,30.5263158 10.8927012,30.5263158 C11.6233968,30.5263158 11.902653,30.6820954 12.4648658,31.0338158 C13.1519448,31.4638553 14.0923778,32.0526316 15.7721667,32.0526316 C17.4495149,32.0526316 18.3893181,31.4653816 19.0763971,31.0361053 C19.6410505,30.6828586 19.9221176,30.5263158 20.6528131,30.5263158 C21.3835087,30.5263158 21.6633948,30.6820954 22.2261587,31.0338158 C22.9150485,31.4646184 23.8580009,32.0526316 25.5346405,32.0526316 C27.2126186,32.0526316 28.1524217,31.4653816 28.8395008,31.0361053 C29.4041542,30.6828586 29.6852212,30.5263158 30.4159168,30.5263158 C31.1459825,30.5263158 31.4258686,30.6820954 31.9892624,31.033148 C32.679963,31.4646184 33.6222855,32.052727 35.2996337,32.052727 C36.088196,32.052727 36.7955087,31.9193651 37.4622753,31.645773 C37.7919976,31.511648 38.1493543,31.725523 38.26123,32.1235099 C38.3725546,32.523023 38.1960413,32.9560197 37.8669488,33.0915757 C37.0676792,33.4192566 36.2280997,33.5787566 35.2999486,33.5787566 Z" id="Shape" fill="#DCF5FF"></path>
                            <path d="M30.8940389,13.2246105 C31.0883192,13.2557504 31.2564942,13.0723806 31.2390656,12.8477222 C31.091488,10.9455861 30.2480474,8.8628559 28.7699326,7.11494467 C27.3095482,5.38793794 25.5222448,4.34184547 23.846379,4.05187141 C22.3355949,3.0897439 20.2495902,2.76507358 18.0679166,3.33122993 C15.9949645,3.86910882 14.2578345,5.09891803 13.1703928,6.62043611 C13.0458271,6.79469811 13.0941142,7.05535383 13.2698342,7.1555393 C14.7579837,8.00394979 16.7434907,8.26434528 18.8119159,7.72759401 C20.7363096,7.22822798 22.3688678,6.13139222 23.4633261,4.75976201 C23.6819009,6.56396793 24.5095728,8.49932575 25.8968474,10.1397653 C27.3782819,11.8915798 29.1975756,12.9528519 30.8940389,13.2246105 Z" id="Shape" fill="#AFD755"></path>
                        </g>
                        <path d="M46.6356589,65.245614 L46.6356589,70.3333333" id="Shape" stroke="#424A60" stroke-width="2" stroke-linecap="round" stroke-linejoin="round"></path>
                        <ellipse id="Oval" fill="#D75A4A" fill-rule="nonzero" cx="47.1395349" cy="58.6315789" rx="6.5503876" ry="6.61403509"></ellipse>
                        <path d="M43.6124031,74.4035088 L49.6589147,80.5087719" id="Shape" stroke="#424A60" stroke-width="2" stroke-linecap="round" stroke-linejoin="round"></path>
                        <path d="M43.6124031,80.5087719 L49.6589147,74.4035088" id="Shape" stroke="#424A60" stroke-width="2" stroke-linecap="round" stroke-linejoin="round"></path>
                        <g id="store" transform="translate(4.000000, 22.368421)" fill-rule="nonzero">
                            <path d="M2.01550388,1.01754386 L21.1627907,1.01754386 L21.1627907,18.3157895 L2.01550388,18.3157895 C2.01550388,18.3157895 2.01550388,1.01754386 2.01550388,1.01754386 Z" id="Shape" fill="#E4E7E7"></path>
                            <path d="M2.01550388,6.10526316 L21.1627907,6.10526316 L21.1627907,7.04719334 L2.01550388,7.04719334 C2.01550388,7.04719334 2.01550388,6.10526316 2.01550388,6.10526316 Z" id="Shape" fill="#CDCFCF"></path>
                            <path d="M23.1601936,4.07017544 L21.3146295,2.03508772 L1.8274631,2.03508772 L0,4.07017544 L0,5.43368679 C0,5.79998708 0.271422696,6.10526316 0.615203338,6.10526316 L22.5630912,6.10526316 C22.9068719,6.10526316 23.1782946,5.79998708 23.1782946,5.43368679 L23.1601936,4.07017544 Z" id="Shape" fill="#E4E7E7"></path>
                            <polygon id="Shape" fill="#CDCFCF" points="23.1782946 4.07017544 21.3771449 2.03508772 1.7829031 2.03508772 0 4.07017544"></polygon>
                            <path d="M3.26746344,0 L19.8924598,0 L21.1627907,1.01754386 L2.01550388,1.01754386 C2.01550388,1.01754386 3.26746344,0 3.26746344,0 Z" id="Shape" fill="#CCD0D2"></path>
                            <path d="M4.03100775,18.2461275 L8.40914295,18.2461275 L8.40914295,6.10526316 L4.03100775,6.10526316 L4.03100775,18.2461275 Z M9.74160207,19.3333333 L15.4521964,19.3333333 L15.4521964,6.10526316 L9.74160207,6.10526316 L9.74160207,19.3333333 Z M16.7846555,6.10526316 L16.7846555,18.2461275 L21.1627907,18.2461275 L21.1627907,6.10526316 L16.7846555,6.10526316 Z M4.03100775,18.2461275 L8.40914295,18.2461275 L8.40914295,6.10526316 L4.03100775,6.10526316 L4.03100775,18.2461275 Z M9.74160207,19.3333333 L15.4521964,19.3333333 L15.4521964,6.10526316 L9.74160207,6.10526316 L9.74160207,19.3333333 Z M16.7846555,6.10526316 L16.7846555,18.2461275 L21.1627907,18.2461275 L21.1627907,6.10526316 L16.7846555,6.10526316 Z" id="Shape" fill="#2EA9D3"></path>
                            <path d="M11.8202124,10.1754386 L14.381338,10.1754386 C14.7821995,10.1754386 15.1162791,10.4319739 15.1162791,10.7568984 L15.1162791,11.6290665 C15.1162791,11.953991 14.7821995,12.2105263 14.381338,12.2105263 L11.8202124,12.2105263 C11.4193509,12.2105263 11.0852713,11.953991 11.0852713,11.6290665 L11.0852713,10.7568984 C11.0852713,10.4319739 11.4193509,10.1754386 11.8202124,10.1754386 Z" id="Shape" fill="#3DB39E"></path>
                            <path d="M14.3590585,10.6885093 C14.381338,10.6885093 14.425897,10.7227256 14.425897,10.7568984 L14.425897,11.6290665 C14.425897,11.6803909 14.381338,11.6974556 14.3590585,11.6974556 L11.8202124,11.6974556 C11.7979329,11.6974556 11.7533738,11.6632393 11.7533738,11.6290665 L11.7533738,10.7568984 C11.7533738,10.705574 11.7979329,10.6885093 11.8202124,10.6885093 L14.3590585,10.6885093 Z M14.3590585,10.1754386 L11.8202124,10.1754386 C11.4193509,10.1754386 11.0852713,10.4319739 11.0852713,10.7568984 L11.0852713,11.6290665 C11.0852713,11.953991 11.4193509,12.2105263 11.8202124,12.2105263 L14.381338,12.2105263 C14.7821995,12.2105263 15.1162791,11.953991 15.1162791,11.6290665 L15.1162791,10.7568984 C15.0939996,10.4319739 14.75992,10.1754386 14.3590585,10.1754386 Z" id="Shape" fill="#E4E7E7"></path>
                            <path d="M8.40909462,13.0584806 L6.69592599,13.0584806 L6.69592599,11.1929825 L4.03100775,11.1929825 L4.03100775,17.2982764 L8.40914295,17.2982764 L8.40914295,13.0584806 L8.40909462,13.0584806 Z M9.74160207,13.0584806 L12.0258591,13.0584806 L12.0258591,18.3157895 L9.74160207,18.3157895 L9.74160207,13.0584806 Z M16.7846555,11.3625967 L21.1627907,11.3625967 L21.1627907,17.2982764 L16.7846555,17.2982764 L16.7846555,11.3625967 Z M13.9293583,14.2456079 L15.4521964,14.2456079 L15.4521964,18.3157895 L13.9293583,18.3157895 L13.9293583,14.2456079 Z" id="Shape" fill="#2998BD"></path>
                            <path d="M18.1843919,16.7142565 C18.4739161,16.7142565 18.7452934,16.8027288 18.9805147,16.9620149 C19.1433778,15.9886847 20.0118586,15.2631579 21.0613036,15.2631579 C22.2193087,15.2631579 23.1782946,16.1656743 23.1782946,17.2982456 C23.1782946,18.430817 22.2374097,19.3333333 21.0613036,19.3333333 L18.202447,19.3333333 C17.4605813,19.3333333 16.8454227,18.7493442 16.8454227,18.0237724 C16.8273676,17.2982456 17.4425722,16.7142565 18.1843919,16.7142565 Z M4.9758476,16.7142565 C4.68632336,16.7142565 4.41494607,16.8027288 4.17972485,16.9620149 C4.01686172,15.9886847 3.14838088,15.2631579 2.0989359,15.2631579 C0.940884874,15.263113 0,16.1833328 0,17.2982456 C0,18.430817 0.940884874,19.3333333 2.11699097,19.3333333 L4.9758476,19.3333333 C5.71771327,19.3333333 6.33287189,18.7493442 6.33287189,18.0237724 C6.33287189,17.2982456 5.71766733,16.7142565 4.9758476,16.7142565 Z" id="Shape" fill="#3DB39E"></path>
                            <path d="M4.97973651,18.8636824 L2.11864551,18.8636824 C1.05026518,18.8636824 0.162990416,18.1749061 0.0362303096,17.2982456 C0,17.3765473 0,17.4548092 0,17.5331108 C0,18.5349745 0.941620229,19.3333333 2.11864551,19.3333333 L4.97973651,19.3333333 C5.72218199,19.3333333 6.33782139,18.8167412 6.33782139,18.1749061 C6.33782139,18.0966442 6.31970623,18.0183823 6.30159108,17.9400807 C6.17487695,18.4723332 5.63160622,18.8636824 4.97973651,18.8636824 Z M21.059695,18.8636824 L18.198604,18.8636824 C17.5467343,18.8636824 17.0034636,18.4723332 16.8767035,17.9400807 C16.8585883,18.0183426 16.8404732,18.0966045 16.8404732,18.1749061 C16.8404732,18.8167412 17.4561586,19.3333333 18.1985581,19.3333333 L21.0596491,19.3333333 C22.2185592,19.3333333 23.1782946,18.5349745 23.1782946,17.5331108 C23.1782946,17.4548489 23.1782946,17.376587 23.1601794,17.2982854 C23.0153501,18.1749061 22.1461905,18.8636824 21.059695,18.8636824 Z" id="Shape" fill="#37A18E"></path>
                            <path d="M16.7846555,6.10526316 L21.1627907,6.10526316 L21.1627907,7.01024019 L16.7846555,7.01024019 L16.7846555,6.10526316 Z M4.03100775,6.10526316 L8.40914295,6.10526316 L8.40914295,7.01024019 L4.03100775,7.01024019 L4.03100775,6.10526316 Z M9.74160207,6.10526316 L15.4521964,6.10526316 L15.4521964,7.01024019 L9.74160207,7.01024019 L9.74160207,6.10526316 Z" id="Shape" fill="#2998BD"></path>
                            <path d="M21.3312881,2.03513939 L20.281025,2.03513939 L21.910742,4.07020127 L21.910742,6.10526316 L22.5626104,6.10526316 C22.9066597,6.10526316 23.1782946,5.79999096 23.1782946,5.43369532 L23.1782946,4.07020127 L23.1601795,4.0498429 C23.1601795,4.04979123 21.3312881,2.03513939 21.3312881,2.03513939 Z M6.13863446,4.00912617 L6.86296335,2.03513939 L5.81270026,2.03513939 L4.88919701,4.00912617 L4.88919701,6.10521149 L6.13863446,6.10521149 L6.13863446,4.00912617 Z M2.3540459,6.10521149 L3.60348335,6.10521149 L3.60348335,4.0701496 L4.88915104,2.03508772 L3.67594383,2.03508772 L2.3540459,4.0701496 L2.3540459,6.10521149 Z M11.0459006,4.04979123 L11.2269599,2.03508772 L9.95940729,2.03508772 L9.79641719,4.02943286 L9.79641719,6.10515982 L11.0458546,6.10515982 L11.0459006,4.04979123 Z M8.6737396,6.08485312 L8.6737396,4.00912617 L9.05401916,2.03513939 L7.87699621,2.03513939 L7.42430215,4.00912617 L7.42430215,6.08485312 L8.6737396,6.08485312 Z M18.2891435,6.10521149 L18.2891435,4.00912617 L17.3656403,2.05549776 L16.3153772,2.05549776 L17.021591,4.00912617 L17.021591,6.10521149 L18.2891435,6.10521149 Z M20.8242487,6.10521149 L20.8242487,4.0701496 L19.5023507,2.03508772 L18.2890976,2.03508772 L19.5747652,4.0701496 L19.5747652,6.10521149 L20.8242487,6.10521149 Z M0.615684154,6.10521149 L1.26755257,6.10521149 L1.26755257,4.0701496 L2.89726958,2.03508772 L1.82889136,2.03508772 L0,4.0701496 L0,5.41328528 C0,5.79993929 0.271634828,6.10521149 0.615684154,6.10521149 Z M13.3818314,6.10521149 L13.3818314,4.0498429 L13.2188413,2.03513939 L11.9512887,2.03513939 L12.132348,4.0498429 L12.132348,6.10521149 L13.3818314,6.10521149 Z M14.504555,4.00912617 L14.504555,6.08485312 L15.7539924,6.08485312 L15.7539924,4.00912617 L15.3012984,2.03513939 L14.1242754,2.03513939 L14.504555,4.00912617 Z" id="Shape" fill="#E2574C"></path>
                            <path d="M17.392775,2.05602297 L16.3375657,2.05602297 L17.0471054,4.07012217 L18.3024269,4.07012217 L17.392775,2.05602297 Z M13.2265393,2.03508772 L11.9530173,2.03508772 L12.1349292,4.07017544 L13.3902508,4.07017544 L13.2265393,2.03508772 Z M21.3771449,2.03508772 L20.3219356,2.03508772 L21.9047726,4.07017544 L23.1782946,4.07017544 L21.3771449,2.03508772 Z M19.5395943,2.03508772 L18.3206274,2.03508772 L19.5577947,4.07017544 L20.8131163,4.07017544 L19.5395943,2.03508772 Z M15.3005569,2.03508772 L14.1361913,2.03508772 L14.5182618,4.07017544 L15.7735833,4.07017544 L15.3005569,2.03508772 Z M7.40466504,4.07017544 L8.65998661,4.07017544 L9.04205708,2.03508772 L7.85949103,2.03508772 L7.40466504,4.07017544 Z M4.85757482,2.03508772 L3.63865411,2.03508772 L2.34693167,4.07017544 L3.60225325,4.07017544 L4.85757482,2.03508772 Z M9.78799757,4.07017544 L11.0433191,4.07017544 L11.2252311,2.03508772 L9.95170905,2.03508772 L9.78799757,4.07017544 Z M0,4.07017544 L1.27352201,4.07017544 L2.85635895,2.03508772 L1.7829031,2.03508772 L0,4.07017544 Z M4.85757482,4.07017544 L6.1128964,4.07017544 L6.84063646,2.03508772 L5.78542723,2.03508772 L4.85757482,4.07017544 Z" id="Shape" fill="#CB4E44"></path>
                        </g>
                        <path d="M30.6875,31.0058594 C39.7114519,14.5195166 62.7029285,26.789378 48.6455078,38.8886719 C43.4816803,43.3332046 36.6303081,45.6838815 31.8535156,50.5419922 C30.3324403,52.0889617 30.0769123,54.9522485 30.8623047,56.9746094 C31.8284924,59.4625126 34.6494141,60.7363281 36.5429687,62.6171875" id="Path-2" stroke="#979797" stroke-width="3" stroke-dasharray="5"></path>
                    </g>
                </g>
            </g>
        </g>
    </g>
</svg>