<svg id="Layer_1" data-name="Layer 1" xmlns="http://www.w3.org/2000/svg" viewBox="0 0 141.73 141.73"><defs><style>.cls-1{fill:#0dbbec;}</style></defs><title>iconwebsite</title><path class="cls-1" d="M67.28,13.62h7.16c2.57.38,5.16.64,7.71,1.16a57.31,57.31,0,0,1,45.37,48A56.82,56.82,0,0,1,115,107.23,57.08,57.08,0,0,1,64.09,127.7a53.81,53.81,0,0,1-19.2-5.83c-16.58-8.85-26.79-22.52-30.38-41-.42-2.18-.61-4.41-.9-6.62q0-3.35,0-6.71c.25-2,.41-4,.75-6a57.42,57.42,0,0,1,46.31-47C62.86,14.14,65.08,13.92,67.28,13.62ZM23.83,57.29c-2.53,7.49-2.6,18.75-.25,26.5.25.81.72.69,1.25.69h23.7c.33,0,.66,0,1.1-.05a164.13,164.13,0,0,1,0-27.14Zm68.27,0a163.18,163.18,0,0,1,0,27.2h1.2c7.82,0,15.65,0,23.47,0,1,0,1.3-.4,1.52-1.25a47.8,47.8,0,0,0,1.29-17.49c-.34-2.85-1-5.68-1.45-8.49Zm-8.28,0H57.9a153.13,153.13,0,0,0,0,27.1H83.82A152.37,152.37,0,0,0,83.83,57.33Zm-1-8.39c-.1-.7-.18-1.32-.29-1.93a71.59,71.59,0,0,0-5.09-17.6A18.67,18.67,0,0,0,73,22.88c-1.51-1.33-2.85-1.43-4.24,0a21.19,21.19,0,0,0-3.3,4.31c-2.89,5.09-4.39,10.69-5.59,16.38-.37,1.76-.67,3.54-1,5.38ZM59,92.79a5.41,5.41,0,0,0,0,.78,79.87,79.87,0,0,0,4.34,16.56c1.23,3.08,2.6,6.11,5,8.46,1.81,1.73,3.28,1.85,4.88,0a31,31,0,0,0,4.07-6.2A60.32,60.32,0,0,0,82,97.18c.29-1.43.51-2.88.77-4.39ZM58,23.53A49.81,49.81,0,0,0,27,49H50.53C51.93,40.26,53.78,31.71,58,23.53ZM91.18,48.94h23.55a49.77,49.77,0,0,0-31-25.41C87.92,31.68,89.79,40.22,91.18,48.94ZM57.87,118.17a3.74,3.74,0,0,0-.14-.49c-3.82-7.55-5.74-15.66-7-24-.12-.77-.42-1-1.22-1-7.15,0-14.3,0-21.45,0-.29,0-.58,0-1.07.06C33.8,105.61,44,114,57.87,118.17Zm25.84.05c14-4.22,24.23-12.62,31-25.44H91.18C89.8,101.48,87.94,110,83.72,118.22Z"/></svg>