<svg id="Layer_1" data-name="Layer 1" xmlns="http://www.w3.org/2000/svg" viewBox="0 0 141.73 141.73"><defs><style>.cls-1{fill:#243e90;}.cls-2{fill:#0dbbec;}</style></defs><title>iconwebsite</title><path class="cls-1" d="M14.17,128.26c.36-1.08.69-2.07,1-3.05l7.68-22.52c.44-1.29.87-2.57,1.32-3.85a1,1,0,0,0-.09-.92,55,55,0,0,1-8-32.42,54,54,0,0,1,11.22-30A55,55,0,0,1,59.25,14.9a53.12,53.12,0,0,1,13.69-1.41,55.85,55.85,0,0,1,51.84,38.18,54.27,54.27,0,0,1,2.76,16,53.39,53.39,0,0,1-5.82,26.1c-7.75,15-19.89,24.75-36.24,29.12a52.63,52.63,0,0,1-15.32,1.68,55.81,55.81,0,0,1-24.29-6.31,1.17,1.17,0,0,0-.82-.07q-13.57,4.4-27.13,8.84Zm15.09-14.95.64-.19,16.49-5.31a1,1,0,0,1,.92.12c1.58.94,3.14,1.93,4.79,2.74a43.22,43.22,0,0,0,22.36,4.41A42.33,42.33,0,0,0,81.65,114a43.92,43.92,0,0,0,22.81-13.67,46,46,0,0,0,11.82-28.4,44.71,44.71,0,0,0-.88-12.46A45.53,45.53,0,0,0,97.83,31.71a43,43,0,0,0-30.52-8.6,41.46,41.46,0,0,0-9.48,2,44.41,44.41,0,0,0-22.08,16A46.39,46.39,0,0,0,26.6,67.68a47.29,47.29,0,0,0,8.09,27.78,1.23,1.23,0,0,1,.17,1.22c-1.39,4.09-2.76,8.19-4.13,12.29Z"/><path class="cls-2" d="M29.27,113.32,30.73,109c1.38-4.1,2.74-8.2,4.13-12.29a1.23,1.23,0,0,0-.17-1.22,47.08,47.08,0,0,1,1.07-54.34,44.41,44.41,0,0,1,22.08-16,41.46,41.46,0,0,1,9.48-2,43,43,0,0,1,30.52,8.6A45.53,45.53,0,0,1,115.4,59.46a44.71,44.71,0,0,1,.88,12.46,46,46,0,0,1-11.82,28.4A43.92,43.92,0,0,1,81.65,114a42.33,42.33,0,0,1-7.18,1.08,43.22,43.22,0,0,1-22.36-4.41c-1.65-.81-3.21-1.8-4.79-2.74a1,1,0,0,0-.92-.12l-16.49,5.31Zm28-71.69c-.79,0-1.59,0-2.38,0a1.62,1.62,0,0,0-.82.25,13.31,13.31,0,0,0-5.17,6.71,16.16,16.16,0,0,0-.7,7.67,13.73,13.73,0,0,0,.94,3.78A62.41,62.41,0,0,0,63.57,80.17a53.15,53.15,0,0,0,18.7,11.36,12.21,12.21,0,0,0,5.21,1c.75-.07,1.5-.12,2.25-.22a16,16,0,0,0,6.57-2.11,10.55,10.55,0,0,0,4.92-10.18,1,1,0,0,0-.63-.93c-2.09-1.1-4.15-2.23-6.23-3.34-1.48-.79-2.93-1.63-4.44-2.34s-2.23-.45-3.22.82l0,0c-1.61,1.8-3.22,3.59-4.82,5.4a.57.57,0,0,1-.73.14A35.14,35.14,0,0,1,71,74.54,25.55,25.55,0,0,1,62.35,63.1c-.58-1.56-.58-1.58.63-2.75a10.22,10.22,0,0,0,2.69-3.59,4.38,4.38,0,0,0,0-3.89c-1.82-3.54-3.49-7.15-5.2-10.73a.79.79,0,0,0-.85-.52C58.82,41.64,58,41.62,57.28,41.62Z"/><path class="cls-1" d="M57.28,41.62c.77,0,1.55,0,2.32,0a.79.79,0,0,1,.85.52c1.71,3.59,3.38,7.2,5.2,10.73a4.38,4.38,0,0,1,0,3.89A10.22,10.22,0,0,1,63,60.35c-1.21,1.17-1.2,1.19-.63,2.75A25.55,25.55,0,0,0,71,74.54a35.14,35.14,0,0,0,10.12,5.32.57.57,0,0,0,.73-.14c1.59-1.81,3.21-3.6,4.82-5.4l0,0c1-1.26,1.75-1.51,3.22-.82s3,1.55,4.44,2.34c2.08,1.11,4.14,2.25,6.23,3.34a1,1,0,0,1,.63.93A10.55,10.55,0,0,1,96.3,90.26a16,16,0,0,1-6.57,2.11c-.75.09-1.5.14-2.25.22a12.21,12.21,0,0,1-5.21-1,53.15,53.15,0,0,1-18.7-11.36A62.41,62.41,0,0,1,49.15,60.05a13.73,13.73,0,0,1-.94-3.78,16.16,16.16,0,0,1,.7-7.67,13.31,13.31,0,0,1,5.17-6.71,1.62,1.62,0,0,1,.82-.25C55.69,41.6,56.48,41.62,57.28,41.62Z"/></svg>